<mxfile host="app.diagrams.net" modified="2023-10-03T14:48:16.338Z" agent="Mozilla/5.0 (Windows NT 10.0; Win64; x64) AppleWebKit/537.36 (KHTML, like Gecko) Chrome/117.0.0.0 Safari/537.36" etag="uiQEtIWUUvCUQkOyR2Aj" version="22.0.2" type="google">
  <diagram name="Page-1" id="rR8V6cLt9HSflriEj8Op">
    <mxGraphModel grid="1" page="1" gridSize="10" guides="1" tooltips="1" connect="1" arrows="1" fold="1" pageScale="1" pageWidth="850" pageHeight="1100" math="0" shadow="0">
      <root>
        <mxCell id="0" />
        <mxCell id="1" parent="0" />
        <mxCell id="6XY57uzZAI9nGGdWdbkV-15" value="" style="group" connectable="0" vertex="1" parent="1">
          <mxGeometry x="41" y="20" width="320" height="70" as="geometry" />
        </mxCell>
        <mxCell id="6XY57uzZAI9nGGdWdbkV-11" value="Initially first line of main&lt;br&gt;DANGLING" style="text;html=1;strokeColor=none;fillColor=none;align=center;verticalAlign=middle;whiteSpace=wrap;rounded=0;fontSize=15;" vertex="1" parent="6XY57uzZAI9nGGdWdbkV-15">
          <mxGeometry width="100" height="55" as="geometry" />
        </mxCell>
        <mxCell id="6XY57uzZAI9nGGdWdbkV-13" value="" style="group" connectable="0" vertex="1" parent="6XY57uzZAI9nGGdWdbkV-15">
          <mxGeometry x="140" width="180" height="70" as="geometry" />
        </mxCell>
        <mxCell id="6XY57uzZAI9nGGdWdbkV-8" value="entry *r" style="rounded=0;whiteSpace=wrap;html=1;fontSize=19;" vertex="1" parent="6XY57uzZAI9nGGdWdbkV-13">
          <mxGeometry x="10" y="10" width="120" height="60" as="geometry" />
        </mxCell>
        <mxCell id="6XY57uzZAI9nGGdWdbkV-9" value="" style="curved=1;endArrow=classic;html=1;rounded=0;exitX=1;exitY=0.5;exitDx=0;exitDy=0;" edge="1" parent="6XY57uzZAI9nGGdWdbkV-13" source="6XY57uzZAI9nGGdWdbkV-8">
          <mxGeometry width="50" height="50" relative="1" as="geometry">
            <mxPoint x="130" y="50" as="sourcePoint" />
            <mxPoint x="170" y="-14.444444444444457" as="targetPoint" />
            <Array as="points">
              <mxPoint x="180" y="50" />
              <mxPoint x="130" />
            </Array>
          </mxGeometry>
        </mxCell>
        <mxCell id="6XY57uzZAI9nGGdWdbkV-16" value="" style="group" connectable="0" vertex="1" parent="1">
          <mxGeometry x="30" y="120" width="370" height="240" as="geometry" />
        </mxCell>
        <mxCell id="6XY57uzZAI9nGGdWdbkV-1" value="" style="group" connectable="0" vertex="1" parent="6XY57uzZAI9nGGdWdbkV-16">
          <mxGeometry x="170" y="4.8979591836734695" width="200" height="235.10204081632654" as="geometry" />
        </mxCell>
        <mxCell id="6XY57uzZAI9nGGdWdbkV-2" value="entry e&lt;br&gt;" style="swimlane;fontStyle=1;align=center;verticalAlign=top;childLayout=stackLayout;horizontal=1;startSize=26;horizontalStack=0;resizeParent=1;resizeParentMax=0;resizeLast=0;collapsible=1;marginBottom=0;whiteSpace=wrap;html=1;fontSize=17;" vertex="1" parent="6XY57uzZAI9nGGdWdbkV-1">
          <mxGeometry x="10" y="125.10702154987875" width="200" height="75.3221064649636" as="geometry" />
        </mxCell>
        <mxCell id="6XY57uzZAI9nGGdWdbkV-3" value="+ x: double = 1.000" style="text;strokeColor=none;fillColor=none;align=left;verticalAlign=top;spacingLeft=4;spacingRight=4;overflow=hidden;rotatable=0;points=[[0,0.5],[1,0.5]];portConstraint=eastwest;whiteSpace=wrap;html=1;fontSize=17;" vertex="1" parent="6XY57uzZAI9nGGdWdbkV-2">
          <mxGeometry y="26" width="200" height="21.372912801484226" as="geometry" />
        </mxCell>
        <mxCell id="6XY57uzZAI9nGGdWdbkV-4" value="" style="line;strokeWidth=1;fillColor=none;align=left;verticalAlign=middle;spacingTop=-1;spacingLeft=3;spacingRight=3;rotatable=0;labelPosition=right;points=[];portConstraint=eastwest;strokeColor=inherit;fontSize=17;" vertex="1" parent="6XY57uzZAI9nGGdWdbkV-2">
          <mxGeometry y="47.372912801484226" width="200" height="6.576280861995147" as="geometry" />
        </mxCell>
        <mxCell id="6XY57uzZAI9nGGdWdbkV-5" value="+ e: struct entry* = NULL&lt;br&gt;" style="text;strokeColor=none;fillColor=none;align=left;verticalAlign=top;spacingLeft=4;spacingRight=4;overflow=hidden;rotatable=0;points=[[0,0.5],[1,0.5]];portConstraint=eastwest;whiteSpace=wrap;html=1;fontSize=17;" vertex="1" parent="6XY57uzZAI9nGGdWdbkV-2">
          <mxGeometry y="53.94919366347937" width="200" height="21.372912801484226" as="geometry" />
        </mxCell>
        <mxCell id="6XY57uzZAI9nGGdWdbkV-6" value="entry *r" style="rounded=0;whiteSpace=wrap;html=1;fontSize=19;" vertex="1" parent="6XY57uzZAI9nGGdWdbkV-1">
          <mxGeometry x="45.45454545454545" width="109.0909090909091" height="49.3221064649636" as="geometry" />
        </mxCell>
        <mxCell id="6XY57uzZAI9nGGdWdbkV-7" value="" style="endArrow=classic;html=1;rounded=0;exitX=0.5;exitY=1;exitDx=0;exitDy=0;entryX=0.5;entryY=0;entryDx=0;entryDy=0;" edge="1" parent="6XY57uzZAI9nGGdWdbkV-1" source="6XY57uzZAI9nGGdWdbkV-6" target="6XY57uzZAI9nGGdWdbkV-2">
          <mxGeometry width="50" height="50" relative="1" as="geometry">
            <mxPoint x="200" y="172.62737262737264" as="sourcePoint" />
            <mxPoint x="100" y="125.10204081632654" as="targetPoint" />
          </mxGeometry>
        </mxCell>
        <mxCell id="6XY57uzZAI9nGGdWdbkV-14" value="After f(&amp;amp;r)" style="text;html=1;strokeColor=none;fillColor=none;align=center;verticalAlign=middle;whiteSpace=wrap;rounded=0;fontSize=15;" vertex="1" parent="6XY57uzZAI9nGGdWdbkV-16">
          <mxGeometry width="100" height="53.87755102040816" as="geometry" />
        </mxCell>
        <mxCell id="6XY57uzZAI9nGGdWdbkV-26" value="END OUTPUT&lt;br&gt;After r=r-&amp;gt;e&lt;br&gt;NULL" style="text;html=1;strokeColor=none;fillColor=none;align=center;verticalAlign=middle;whiteSpace=wrap;rounded=0;fontSize=15;" vertex="1" parent="1">
          <mxGeometry x="30" y="360" width="100" height="55" as="geometry" />
        </mxCell>
        <mxCell id="6XY57uzZAI9nGGdWdbkV-27" value="" style="group" connectable="0" vertex="1" parent="1">
          <mxGeometry x="200" y="400" width="180" height="70" as="geometry" />
        </mxCell>
        <mxCell id="6XY57uzZAI9nGGdWdbkV-28" value="entry *r" style="rounded=0;whiteSpace=wrap;html=1;fontSize=19;" vertex="1" parent="6XY57uzZAI9nGGdWdbkV-27">
          <mxGeometry x="10" y="10" width="120" height="60" as="geometry" />
        </mxCell>
        <mxCell id="6XY57uzZAI9nGGdWdbkV-29" value="" style="curved=1;endArrow=classic;html=1;rounded=0;exitX=1;exitY=0.5;exitDx=0;exitDy=0;" edge="1" parent="6XY57uzZAI9nGGdWdbkV-27" source="6XY57uzZAI9nGGdWdbkV-28">
          <mxGeometry width="50" height="50" relative="1" as="geometry">
            <mxPoint x="130" y="50" as="sourcePoint" />
            <mxPoint x="170" y="-14.444444444444457" as="targetPoint" />
            <Array as="points">
              <mxPoint x="180" y="50" />
              <mxPoint x="130" />
            </Array>
          </mxGeometry>
        </mxCell>
        <mxCell id="6XY57uzZAI9nGGdWdbkV-34" value="NULL" style="text;html=1;strokeColor=none;fillColor=none;align=center;verticalAlign=middle;whiteSpace=wrap;rounded=0;fontSize=17;" vertex="1" parent="1">
          <mxGeometry x="370" y="360" width="60" height="40" as="geometry" />
        </mxCell>
      </root>
    </mxGraphModel>
  </diagram>
</mxfile>
